STARTFONT 2.1
COMMENT Copyright (C) 1994-1995 Cronyx Ltd.
COMMENT Changes Copyright (C) 1996 by Andrey A. Chernov, Moscow, Russia.
COMMENT Designed by Serge Vakulenko, <vak@cronyx.ru>
COMMENT This software may be used, modified, copied, distributed, and sold,
COMMENT in both source and binary form provided that the copyright
COMMENT and these terms are retained. Under no circumstances is the author
COMMENT responsible for the proper functioning of this software, nor does
COMMENT the author assume any responsibility for damages incurred with its use.
COMMENT $XFree86: xc/fonts/bdf/cyrillic/koi9x15.bdf,v 3.1 1996/09/01 12:19:06 dawes Exp $
FONT -Cronyx-Fixed-Medium-R-Normal--15-140-75-75-C-90-KOI8-R
SIZE 15 75 75
FONTBOUNDINGBOX 9 15 0 -3
STARTPROPERTIES 19
FONTNAME_REGISTRY ""
FOUNDRY "Cronyx"
FAMILY_NAME "Fixed"
WEIGHT_NAME "Medium"
SLANT "R"
SETWIDTH_NAME "Normal"
ADD_STYLE_NAME ""
PIXEL_SIZE 15
POINT_SIZE 140
RESOLUTION_X 75
RESOLUTION_Y 75
SPACING "C"
AVERAGE_WIDTH 90
CHARSET_REGISTRY "KOI8"
CHARSET_ENCODING "R"
DEFAULT_CHAR 0
FONT_DESCENT 3
FONT_ASCENT 12
COPYRIGHT "Copyright (C) 1994 Cronyx Ltd., Portions Copyright (C) 1996 by Andrey A. Chernov, Moscow, Russia."
ENDPROPERTIES
CHARS 256
STARTCHAR C000
ENCODING 0
SWIDTH 714 0
DWIDTH 9 0
BBX 9 15 0 -3
BITMAP
0000
0000
0000
0000
0000
0000
0000
0000
0000
0000
0000
0000
0000
0000
0000
ENDCHAR
STARTCHAR C001
ENCODING 1
SWIDTH 714 0
DWIDTH 9 0
BBX 9 15 0 -3
BITMAP
0000
0000
0000
0000
0000
0400
0e00
1f00
3f80
1f00
0e00
0400
0000
0000
0000
ENDCHAR
STARTCHAR C002
ENCODING 2
SWIDTH 714 0
DWIDTH 9 0
BBX 9 15 0 -3
BITMAP
0000
0000
0000
0000
0000
2480
1100
2480
1100
2480
1100
2480
0000
0000
0000
ENDCHAR
STARTCHAR C003
ENCODING 3
SWIDTH 714 0
DWIDTH 9 0
BBX 9 15 0 -3
BITMAP
0000
0000
0000
0000
0000
2200
2200
3e00
2200
2200
0f80
0200
0200
0200
0000
ENDCHAR
STARTCHAR C004
ENCODING 4
SWIDTH 714 0
DWIDTH 9 0
BBX 9 15 0 -3
BITMAP
0000
0000
0000
0000
0000
3c00
2000
3800
2000
2780
0400
0700
0400
0400
0000
ENDCHAR
STARTCHAR C005
ENCODING 5
SWIDTH 714 0
DWIDTH 9 0
BBX 9 15 0 -3
BITMAP
0000
0000
0000
0000
0000
1e00
2000
2000
1e00
0f00
0880
0f00
0880
0880
0000
ENDCHAR
STARTCHAR C006
ENCODING 6
SWIDTH 714 0
DWIDTH 9 0
BBX 9 15 0 -3
BITMAP
0000
0000
0000
0000
0000
2000
2000
2000
3e00
0f80
0800
0f00
0800
0800
0000
ENDCHAR
STARTCHAR C007
ENCODING 7
SWIDTH 714 0
DWIDTH 9 0
BBX 9 15 0 -3
BITMAP
0000
0000
0000
0000
0000
0e00
1100
1100
0e00
0000
0000
0000
0000
0000
0000
ENDCHAR
STARTCHAR C010
ENCODING 8
SWIDTH 714 0
DWIDTH 9 0
BBX 9 15 0 -3
BITMAP
0000
0000
0000
0000
0000
0000
0400
0400
3f80
0400
0400
3f80
0000
0000
0000
ENDCHAR
STARTCHAR C011
ENCODING 9
SWIDTH 714 0
DWIDTH 9 0
BBX 9 15 0 -3
BITMAP
0000
0000
0000
0000
0000
2200
3200
2a00
2600
2200
0800
0800
0800
0f80
0000
ENDCHAR
STARTCHAR C012
ENCODING 10
SWIDTH 714 0
DWIDTH 9 0
BBX 9 15 0 -3
BITMAP
0000
0000
0000
0000
0000
2200
2200
1400
0800
0f80
0200
0200
0200
0200
0000
ENDCHAR
STARTCHAR C013
ENCODING 11
SWIDTH 714 0
DWIDTH 9 0
BBX 9 15 0 -3
BITMAP
0400
0400
0400
0400
0400
0400
0400
0400
fc00
0000
0000
0000
0000
0000
0000
ENDCHAR
STARTCHAR C014
ENCODING 12
SWIDTH 714 0
DWIDTH 9 0
BBX 9 15 0 -3
BITMAP
0000
0000
0000
0000
0000
0000
0000
0000
fc00
0400
0400
0400
0400
0400
0400
ENDCHAR
STARTCHAR C015
ENCODING 13
SWIDTH 714 0
DWIDTH 9 0
BBX 9 15 0 -3
BITMAP
0000
0000
0000
0000
0000
0000
0000
0000
0780
0400
0400
0400
0400
0400
0400
ENDCHAR
STARTCHAR C016
ENCODING 14
SWIDTH 714 0
DWIDTH 9 0
BBX 9 15 0 -3
BITMAP
0400
0400
0400
0400
0400
0400
0400
0400
0780
0000
0000
0000
0000
0000
0000
ENDCHAR
STARTCHAR C017
ENCODING 15
SWIDTH 714 0
DWIDTH 9 0
BBX 9 15 0 -3
BITMAP
0400
0400
0400
0400
0400
0400
0400
0400
ff80
0400
0400
0400
0400
0400
0400
ENDCHAR
STARTCHAR C020
ENCODING 16
SWIDTH 714 0
DWIDTH 9 0
BBX 9 15 0 -3
BITMAP
0000
0000
0000
0000
ff80
0000
0000
0000
0000
0000
0000
0000
0000
0000
0000
ENDCHAR
STARTCHAR C021
ENCODING 17
SWIDTH 714 0
DWIDTH 9 0
BBX 9 15 0 -3
BITMAP
0000
0000
0000
0000
0000
0000
ff80
0000
0000
0000
0000
0000
0000
0000
0000
ENDCHAR
STARTCHAR C022
ENCODING 18
SWIDTH 714 0
DWIDTH 9 0
BBX 9 15 0 -3
BITMAP
0000
0000
0000
0000
0000
0000
0000
0000
ff80
0000
0000
0000
0000
0000
0000
ENDCHAR
STARTCHAR C023
ENCODING 19
SWIDTH 714 0
DWIDTH 9 0
BBX 9 15 0 -3
BITMAP
0000
0000
0000
0000
0000
0000
0000
0000
0000
0000
ff80
0000
0000
0000
0000
ENDCHAR
STARTCHAR C024
ENCODING 20
SWIDTH 714 0
DWIDTH 9 0
BBX 9 15 0 -3
BITMAP
0000
0000
0000
0000
0000
0000
0000
0000
0000
0000
0000
0000
ff80
0000
0000
ENDCHAR
STARTCHAR C025
ENCODING 21
SWIDTH 714 0
DWIDTH 9 0
BBX 9 15 0 -3
BITMAP
0400
0400
0400
0400
0400
0400
0400
0400
0780
0400
0400
0400
0400
0400
0400
ENDCHAR
STARTCHAR C026
ENCODING 22
SWIDTH 714 0
DWIDTH 9 0
BBX 9 15 0 -3
BITMAP
0400
0400
0400
0400
0400
0400
0400
0400
fc00
0400
0400
0400
0400
0400
0400
ENDCHAR
STARTCHAR C027
ENCODING 23
SWIDTH 714 0
DWIDTH 9 0
BBX 9 15 0 -3
BITMAP
0400
0400
0400
0400
0400
0400
0400
0400
ff80
0000
0000
0000
0000
0000
0000
ENDCHAR
STARTCHAR C030
ENCODING 24
SWIDTH 714 0
DWIDTH 9 0
BBX 9 15 0 -3
BITMAP
0000
0000
0000
0000
0000
0000
0000
0000
ff80
0400
0400
0400
0400
0400
0400
ENDCHAR
STARTCHAR C031
ENCODING 25
SWIDTH 714 0
DWIDTH 9 0
BBX 9 15 0 -3
BITMAP
0400
0400
0400
0400
0400
0400
0400
0400
0400
0400
0400
0400
0400
0400
0400
ENDCHAR
STARTCHAR C032
ENCODING 26
SWIDTH 714 0
DWIDTH 9 0
BBX 9 15 0 -3
BITMAP
0000
0000
0000
0000
0000
0080
0200
0800
2000
0800
0200
0080
3f80
0000
0000
ENDCHAR
STARTCHAR C033
ENCODING 27
SWIDTH 714 0
DWIDTH 9 0
BBX 9 15 0 -3
BITMAP
0000
0000
0000
0000
0000
2000
0800
0200
0080
0200
0800
2000
3f80
0000
0000
ENDCHAR
STARTCHAR C034
ENCODING 28
SWIDTH 714 0
DWIDTH 9 0
BBX 9 15 0 -3
BITMAP
0000
0000
0000
0000
0000
0000
0000
3f80
0900
0900
0900
1100
0000
0000
0000
ENDCHAR
STARTCHAR C035
ENCODING 29
SWIDTH 714 0
DWIDTH 9 0
BBX 9 15 0 -3
BITMAP
0000
0000
0000
0000
0000
0080
0100
3f80
0400
3f80
1000
2000
0000
0000
0000
ENDCHAR
STARTCHAR C036
ENCODING 30
SWIDTH 714 0
DWIDTH 9 0
BBX 9 15 0 -3
BITMAP
0000
0000
0000
0000
0000
0700
0880
0800
3e00
0800
1e00
2980
1000
0000
0000
ENDCHAR
STARTCHAR C037
ENCODING 31
SWIDTH 714 0
DWIDTH 9 0
BBX 9 15 0 -3
BITMAP
0000
0000
0000
0000
0000
0000
0000
0000
0400
0000
0000
0000
0000
0000
0000
ENDCHAR
STARTCHAR C040
ENCODING 32
SWIDTH 714 0
DWIDTH 9 0
BBX 9 15 0 -3
BITMAP
0000
0000
0000
0000
0000
0000
0000
0000
0000
0000
0000
0000
0000
0000
0000
ENDCHAR
STARTCHAR !
ENCODING 33
SWIDTH 714 0
DWIDTH 9 0
BBX 9 15 0 -3
BITMAP
0000
0000
0400
0400
0400
0400
0400
0400
0400
0400
0000
0400
0000
0000
0000
ENDCHAR
STARTCHAR "
ENCODING 34
SWIDTH 714 0
DWIDTH 9 0
BBX 9 15 0 -3
BITMAP
0000
0000
0900
0900
0900
0000
0000
0000
0000
0000
0000
0000
0000
0000
0000
ENDCHAR
STARTCHAR #
ENCODING 35
SWIDTH 714 0
DWIDTH 9 0
BBX 9 15 0 -3
BITMAP
0000
0000
0000
1200
1200
3f00
1200
1200
3f00
1200
1200
0000
0000
0000
0000
ENDCHAR
STARTCHAR $
ENCODING 36
SWIDTH 714 0
DWIDTH 9 0
BBX 9 15 0 -3
BITMAP
0000
0000
0000
0400
1f00
2400
2400
1f00
0480
0480
1f00
0400
0000
0000
0000
ENDCHAR
STARTCHAR %
ENCODING 37
SWIDTH 714 0
DWIDTH 9 0
BBX 9 15 0 -3
BITMAP
0000
0000
1080
2900
2900
1200
0400
0400
0900
1280
1280
2100
0000
0000
0000
ENDCHAR
STARTCHAR &
ENCODING 38
SWIDTH 714 0
DWIDTH 9 0
BBX 9 15 0 -3
BITMAP
0000
0000
1c00
2200
2200
2200
1c00
2200
2280
2100
2300
1c80
0000
0000
0000
ENDCHAR
STARTCHAR '
ENCODING 39
SWIDTH 714 0
DWIDTH 9 0
BBX 9 15 0 -3
BITMAP
0000
0000
0700
0600
0800
0000
0000
0000
0000
0000
0000
0000
0000
0000
0000
ENDCHAR
STARTCHAR (
ENCODING 40
SWIDTH 714 0
DWIDTH 9 0
BBX 9 15 0 -3
BITMAP
0000
0000
0200
0400
0400
0800
0800
0800
0800
0400
0400
0200
0000
0000
0000
ENDCHAR
STARTCHAR )
ENCODING 41
SWIDTH 714 0
DWIDTH 9 0
BBX 9 15 0 -3
BITMAP
0000
0000
0800
0400
0400
0200
0200
0200
0200
0400
0400
0800
0000
0000
0000
ENDCHAR
STARTCHAR *
ENCODING 42
SWIDTH 714 0
DWIDTH 9 0
BBX 9 15 0 -3
BITMAP
0000
0000
0000
0000
0000
1100
0a00
3f80
0a00
1100
0000
0000
0000
0000
0000
ENDCHAR
STARTCHAR +
ENCODING 43
SWIDTH 714 0
DWIDTH 9 0
BBX 9 15 0 -3
BITMAP
0000
0000
0000
0000
0400
0400
0400
3f80
0400
0400
0400
0000
0000
0000
0000
ENDCHAR
STARTCHAR ,
ENCODING 44
SWIDTH 714 0
DWIDTH 9 0
BBX 9 15 0 -3
BITMAP
0000
0000
0000
0000
0000
0000
0000
0000
0000
0000
0e00
0c00
1000
0000
0000
ENDCHAR
STARTCHAR -
ENCODING 45
SWIDTH 714 0
DWIDTH 9 0
BBX 9 15 0 -3
BITMAP
0000
0000
0000
0000
0000
0000
0000
3f80
0000
0000
0000
0000
0000
0000
0000
ENDCHAR
STARTCHAR .
ENCODING 46
SWIDTH 714 0
DWIDTH 9 0
BBX 9 15 0 -3
BITMAP
0000
0000
0000
0000
0000
0000
0000
0000
0000
0000
0400
0e00
0400
0000
0000
ENDCHAR
STARTCHAR /
ENCODING 47
SWIDTH 714 0
DWIDTH 9 0
BBX 9 15 0 -3
BITMAP
0000
0000
0080
0100
0100
0200
0400
0400
0800
1000
1000
2000
0000
0000
0000
ENDCHAR
STARTCHAR 0
ENCODING 48
SWIDTH 714 0
DWIDTH 9 0
BBX 9 15 0 -3
BITMAP
0000
0000
0e00
1100
2080
2080
2080
2080
2080
2080
1100
0e00
0000
0000
0000
ENDCHAR
STARTCHAR 1
ENCODING 49
SWIDTH 714 0
DWIDTH 9 0
BBX 9 15 0 -3
BITMAP
0000
0000
0400
0c00
1400
0400
0400
0400
0400
0400
0400
1f00
0000
0000
0000
ENDCHAR
STARTCHAR 2
ENCODING 50
SWIDTH 714 0
DWIDTH 9 0
BBX 9 15 0 -3
BITMAP
0000
0000
1f00
2080
2080
0080
0100
0200
0c00
1000
2000
3f80
0000
0000
0000
ENDCHAR
STARTCHAR 3
ENCODING 51
SWIDTH 714 0
DWIDTH 9 0
BBX 9 15 0 -3
BITMAP
0000
0000
3f80
0080
0100
0200
0700
0080
0080
0080
2080
1f00
0000
0000
0000
ENDCHAR
STARTCHAR 4
ENCODING 52
SWIDTH 714 0
DWIDTH 9 0
BBX 9 15 0 -3
BITMAP
0000
0000
0100
0300
0500
0900
1100
2100
3f80
0100
0100
0100
0000
0000
0000
ENDCHAR
STARTCHAR 5
ENCODING 53
SWIDTH 714 0
DWIDTH 9 0
BBX 9 15 0 -3
BITMAP
0000
0000
3f80
2000
2000
2f00
3080
0080
0080
0080
2080
1f00
0000
0000
0000
ENDCHAR
STARTCHAR 6
ENCODING 54
SWIDTH 714 0
DWIDTH 9 0
BBX 9 15 0 -3
BITMAP
0000
0000
0f00
1000
2000
2000
2f00
3080
2080
2080
2080
1f00
0000
0000
0000
ENDCHAR
STARTCHAR 7
ENCODING 55
SWIDTH 714 0
DWIDTH 9 0
BBX 9 15 0 -3
BITMAP
0000
0000
3f80
0080
0080
0100
0200
0400
0800
0800
1000
1000
0000
0000
0000
ENDCHAR
STARTCHAR 8
ENCODING 56
SWIDTH 714 0
DWIDTH 9 0
BBX 9 15 0 -3
BITMAP
0000
0000
1f00
2080
2080
2080
1f00
2080
2080
2080
2080
1f00
0000
0000
0000
ENDCHAR
STARTCHAR 9
ENCODING 57
SWIDTH 714 0
DWIDTH 9 0
BBX 9 15 0 -3
BITMAP
0000
0000
1f00
2080
2080
2080
2180
1e80
0080
0080
0100
1e00
0000
0000
0000
ENDCHAR
STARTCHAR :
ENCODING 58
SWIDTH 714 0
DWIDTH 9 0
BBX 9 15 0 -3
BITMAP
0000
0000
0000
0000
0000
0400
0e00
0400
0000
0000
0400
0e00
0400
0000
0000
ENDCHAR
STARTCHAR ;
ENCODING 59
SWIDTH 714 0
DWIDTH 9 0
BBX 9 15 0 -3
BITMAP
0000
0000
0000
0000
0000
0400
0e00
0400
0000
0000
0e00
0c00
1000
0000
0000
ENDCHAR
STARTCHAR <
ENCODING 60
SWIDTH 714 0
DWIDTH 9 0
BBX 9 15 0 -3
BITMAP
0000
0000
0100
0200
0400
0800
1000
1000
0800
0400
0200
0100
0000
0000
0000
ENDCHAR
STARTCHAR =
ENCODING 61
SWIDTH 714 0
DWIDTH 9 0
BBX 9 15 0 -3
BITMAP
0000
0000
0000
0000
0000
0000
3f80
0000
0000
3f80
0000
0000
0000
0000
0000
ENDCHAR
STARTCHAR >
ENCODING 62
SWIDTH 714 0
DWIDTH 9 0
BBX 9 15 0 -3
BITMAP
0000
0000
1000
0800
0400
0200
0100
0100
0200
0400
0800
1000
0000
0000
0000
ENDCHAR
STARTCHAR ?
ENCODING 63
SWIDTH 714 0
DWIDTH 9 0
BBX 9 15 0 -3
BITMAP
0000
0000
1f00
2080
2080
0080
0100
0200
0400
0400
0000
0400
0000
0000
0000
ENDCHAR
STARTCHAR @
ENCODING 64
SWIDTH 714 0
DWIDTH 9 0
BBX 9 15 0 -3
BITMAP
0000
0000
1f00
2080
2080
2780
2880
2980
2680
2000
2000
1f00
0000
0000
0000
ENDCHAR
STARTCHAR A
ENCODING 65
SWIDTH 714 0
DWIDTH 9 0
BBX 9 15 0 -3
BITMAP
0000
0000
0400
0a00
1100
2080
2080
2080
3f80
2080
2080
2080
0000
0000
0000
ENDCHAR
STARTCHAR B
ENCODING 66
SWIDTH 714 0
DWIDTH 9 0
BBX 9 15 0 -3
BITMAP
0000
0000
3f00
1080
1080
1080
1f00
1080
1080
1080
1080
3f00
0000
0000
0000
ENDCHAR
STARTCHAR C
ENCODING 67
SWIDTH 714 0
DWIDTH 9 0
BBX 9 15 0 -3
BITMAP
0000
0000
1f00
2080
2000
2000
2000
2000
2000
2000
2080
1f00
0000
0000
0000
ENDCHAR
STARTCHAR D
ENCODING 68
SWIDTH 714 0
DWIDTH 9 0
BBX 9 15 0 -3
BITMAP
0000
0000
3f00
1080
1080
1080
1080
1080
1080
1080
1080
3f00
0000
0000
0000
ENDCHAR
STARTCHAR E
ENCODING 69
SWIDTH 714 0
DWIDTH 9 0
BBX 9 15 0 -3
BITMAP
0000
0000
3f80
1000
1000
1000
1e00
1000
1000
1000
1000
3f80
0000
0000
0000
ENDCHAR
STARTCHAR F
ENCODING 70
SWIDTH 714 0
DWIDTH 9 0
BBX 9 15 0 -3
BITMAP
0000
0000
3f80
1000
1000
1000
1e00
1000
1000
1000
1000
1000
0000
0000
0000
ENDCHAR
STARTCHAR G
ENCODING 71
SWIDTH 714 0
DWIDTH 9 0
BBX 9 15 0 -3
BITMAP
0000
0000
1f00
2080
2000
2000
2000
2380
2080
2080
2080
1f00
0000
0000
0000
ENDCHAR
STARTCHAR H
ENCODING 72
SWIDTH 714 0
DWIDTH 9 0
BBX 9 15 0 -3
BITMAP
0000
0000
2080
2080
2080
2080
3f80
2080
2080
2080
2080
2080
0000
0000
0000
ENDCHAR
STARTCHAR I
ENCODING 73
SWIDTH 714 0
DWIDTH 9 0
BBX 9 15 0 -3
BITMAP
0000
0000
1f00
0400
0400
0400
0400
0400
0400
0400
0400
1f00
0000
0000
0000
ENDCHAR
STARTCHAR J
ENCODING 74
SWIDTH 714 0
DWIDTH 9 0
BBX 9 15 0 -3
BITMAP
0000
0000
0780
0100
0100
0100
0100
0100
0100
0100
2100
1e00
0000
0000
0000
ENDCHAR
STARTCHAR K
ENCODING 75
SWIDTH 714 0
DWIDTH 9 0
BBX 9 15 0 -3
BITMAP
0000
0000
2080
2100
2200
2400
3800
2800
2400
2200
2100
2080
0000
0000
0000
ENDCHAR
STARTCHAR L
ENCODING 76
SWIDTH 714 0
DWIDTH 9 0
BBX 9 15 0 -3
BITMAP
0000
0000
2000
2000
2000
2000
2000
2000
2000
2000
2000
3f80
0000
0000
0000
ENDCHAR
STARTCHAR M
ENCODING 77
SWIDTH 714 0
DWIDTH 9 0
BBX 9 15 0 -3
BITMAP
0000
0000
2080
2080
3180
2a80
2a80
2480
2480
2080
2080
2080
0000
0000
0000
ENDCHAR
STARTCHAR N
ENCODING 78
SWIDTH 714 0
DWIDTH 9 0
BBX 9 15 0 -3
BITMAP
0000
0000
2080
2080
3080
2880
2480
2280
2180
2080
2080
2080
0000
0000
0000
ENDCHAR
STARTCHAR O
ENCODING 79
SWIDTH 714 0
DWIDTH 9 0
BBX 9 15 0 -3
BITMAP
0000
0000
1f00
2080
2080
2080
2080
2080
2080
2080
2080
1f00
0000
0000
0000
ENDCHAR
STARTCHAR P
ENCODING 80
SWIDTH 714 0
DWIDTH 9 0
BBX 9 15 0 -3
BITMAP
0000
0000
3f00
2080
2080
2080
3f00
2000
2000
2000
2000
2000
0000
0000
0000
ENDCHAR
STARTCHAR Q
ENCODING 81
SWIDTH 714 0
DWIDTH 9 0
BBX 9 15 0 -3
BITMAP
0000
0000
1f00
2080
2080
2080
2080
2080
2080
2480
2280
1f00
0080
0000
0000
ENDCHAR
STARTCHAR R
ENCODING 82
SWIDTH 714 0
DWIDTH 9 0
BBX 9 15 0 -3
BITMAP
0000
0000
3f00
2080
2080
2080
3f00
2400
2200
2100
2080
2080
0000
0000
0000
ENDCHAR
STARTCHAR S
ENCODING 83
SWIDTH 714 0
DWIDTH 9 0
BBX 9 15 0 -3
BITMAP
0000
0000
1f00
2080
2000
2000
1f00
0080
0080
0080
2080
1f00
0000
0000
0000
ENDCHAR
STARTCHAR T
ENCODING 84
SWIDTH 714 0
DWIDTH 9 0
BBX 9 15 0 -3
BITMAP
0000
0000
3f80
0400
0400
0400
0400
0400
0400
0400
0400
0400
0000
0000
0000
ENDCHAR
STARTCHAR U
ENCODING 85
SWIDTH 714 0
DWIDTH 9 0
BBX 9 15 0 -3
BITMAP
0000
0000
2080
2080
2080
2080
2080
2080
2080
2080
2080
1f00
0000
0000
0000
ENDCHAR
STARTCHAR V
ENCODING 86
SWIDTH 714 0
DWIDTH 9 0
BBX 9 15 0 -3
BITMAP
0000
0000
2080
2080
2080
1100
1100
1100
0a00
0a00
0a00
0400
0000
0000
0000
ENDCHAR
STARTCHAR W
ENCODING 87
SWIDTH 714 0
DWIDTH 9 0
BBX 9 15 0 -3
BITMAP
0000
0000
2080
2080
2080
2080
2480
2480
2480
2480
2a80
1100
0000
0000
0000
ENDCHAR
STARTCHAR X
ENCODING 88
SWIDTH 714 0
DWIDTH 9 0
BBX 9 15 0 -3
BITMAP
0000
0000
2080
2080
1100
0a00
0400
0400
0a00
1100
2080
2080
0000
0000
0000
ENDCHAR
STARTCHAR Y
ENCODING 89
SWIDTH 714 0
DWIDTH 9 0
BBX 9 15 0 -3
BITMAP
0000
0000
2080
2080
1100
0a00
0400
0400
0400
0400
0400
0400
0000
0000
0000
ENDCHAR
STARTCHAR Z
ENCODING 90
SWIDTH 714 0
DWIDTH 9 0
BBX 9 15 0 -3
BITMAP
0000
0000
3f80
0080
0100
0200
0400
0800
1000
2000
2000
3f80
0000
0000
0000
ENDCHAR
STARTCHAR [
ENCODING 91
SWIDTH 714 0
DWIDTH 9 0
BBX 9 15 0 -3
BITMAP
0000
0000
0f00
0800
0800
0800
0800
0800
0800
0800
0800
0f00
0000
0000
0000
ENDCHAR
STARTCHAR \
ENCODING 92
SWIDTH 714 0
DWIDTH 9 0
BBX 9 15 0 -3
BITMAP
0000
0000
2000
1000
1000
0800
0400
0400
0200
0100
0100
0080
0000
0000
0000
ENDCHAR
STARTCHAR ]
ENCODING 93
SWIDTH 714 0
DWIDTH 9 0
BBX 9 15 0 -3
BITMAP
0000
0000
1e00
0200
0200
0200
0200
0200
0200
0200
0200
1e00
0000
0000
0000
ENDCHAR
STARTCHAR ^
ENCODING 94
SWIDTH 714 0
DWIDTH 9 0
BBX 9 15 0 -3
BITMAP
0000
0000
0400
0a00
1100
2080
0000
0000
0000
0000
0000
0000
0000
0000
0000
ENDCHAR
STARTCHAR _
ENCODING 95
SWIDTH 714 0
DWIDTH 9 0
BBX 9 15 0 -3
BITMAP
0000
0000
0000
0000
0000
0000
0000
0000
0000
0000
0000
0000
7f80
0000
0000
ENDCHAR
STARTCHAR `
ENCODING 96
SWIDTH 714 0
DWIDTH 9 0
BBX 9 15 0 -3
BITMAP
0000
0000
1c00
0c00
0200
0000
0000
0000
0000
0000
0000
0000
0000
0000
0000
ENDCHAR
STARTCHAR a
ENCODING 97
SWIDTH 714 0
DWIDTH 9 0
BBX 9 15 0 -3
BITMAP
0000
0000
0000
0000
0000
1f00
0080
0080
1f80
2080
2180
1e80
0000
0000
0000
ENDCHAR
STARTCHAR b
ENCODING 98
SWIDTH 714 0
DWIDTH 9 0
BBX 9 15 0 -3
BITMAP
0000
0000
2000
2000
2000
2f00
3080
2080
2080
2080
3080
2f00
0000
0000
0000
ENDCHAR
STARTCHAR c
ENCODING 99
SWIDTH 714 0
DWIDTH 9 0
BBX 9 15 0 -3
BITMAP
0000
0000
0000
0000
0000
1f00
2080
2000
2000
2000
2080
1f00
0000
0000
0000
ENDCHAR
STARTCHAR d
ENCODING 100
SWIDTH 714 0
DWIDTH 9 0
BBX 9 15 0 -3
BITMAP
0000
0000
0080
0080
0080
1e80
2180
2080
2080
2080
2180
1e80
0000
0000
0000
ENDCHAR
STARTCHAR e
ENCODING 101
SWIDTH 714 0
DWIDTH 9 0
BBX 9 15 0 -3
BITMAP
0000
0000
0000
0000
0000
1f00
2080
2080
3f80
2000
2000
1f00
0000
0000
0000
ENDCHAR
STARTCHAR f
ENCODING 102
SWIDTH 714 0
DWIDTH 9 0
BBX 9 15 0 -3
BITMAP
0000
0000
0700
0880
0880
0800
0800
3e00
0800
0800
0800
0800
0000
0000
0000
ENDCHAR
STARTCHAR g
ENCODING 103
SWIDTH 714 0
DWIDTH 9 0
BBX 9 15 0 -3
BITMAP
0000
0000
0000
0000
0000
1e80
2100
2100
2100
1e00
2000
1f00
2080
2080
1f00
ENDCHAR
STARTCHAR h
ENCODING 104
SWIDTH 714 0
DWIDTH 9 0
BBX 9 15 0 -3
BITMAP
0000
0000
2000
2000
2000
2f00
3080
2080
2080
2080
2080
2080
0000
0000
0000
ENDCHAR
STARTCHAR i
ENCODING 105
SWIDTH 714 0
DWIDTH 9 0
BBX 9 15 0 -3
BITMAP
0000
0000
0000
0400
0000
0c00
0400
0400
0400
0400
0400
1f00
0000
0000
0000
ENDCHAR
STARTCHAR j
ENCODING 106
SWIDTH 714 0
DWIDTH 9 0
BBX 9 15 0 -3
BITMAP
0000
0000
0000
0100
0000
0700
0100
0100
0100
0100
0100
2100
2100
2100
1e00
ENDCHAR
STARTCHAR k
ENCODING 107
SWIDTH 714 0
DWIDTH 9 0
BBX 9 15 0 -3
BITMAP
0000
0000
2000
2000
2000
2080
2300
2c00
3000
2c00
2300
2080
0000
0000
0000
ENDCHAR
STARTCHAR l
ENCODING 108
SWIDTH 714 0
DWIDTH 9 0
BBX 9 15 0 -3
BITMAP
0000
0000
0c00
0400
0400
0400
0400
0400
0400
0400
0400
1f00
0000
0000
0000
ENDCHAR
STARTCHAR m
ENCODING 109
SWIDTH 714 0
DWIDTH 9 0
BBX 9 15 0 -3
BITMAP
0000
0000
0000
0000
0000
3b00
2480
2480
2480
2480
2480
2080
0000
0000
0000
ENDCHAR
STARTCHAR n
ENCODING 110
SWIDTH 714 0
DWIDTH 9 0
BBX 9 15 0 -3
BITMAP
0000
0000
0000
0000
0000
2f00
3080
2080
2080
2080
2080
2080
0000
0000
0000
ENDCHAR
STARTCHAR o
ENCODING 111
SWIDTH 714 0
DWIDTH 9 0
BBX 9 15 0 -3
BITMAP
0000
0000
0000
0000
0000
1f00
2080
2080
2080
2080
2080
1f00
0000
0000
0000
ENDCHAR
STARTCHAR p
ENCODING 112
SWIDTH 714 0
DWIDTH 9 0
BBX 9 15 0 -3
BITMAP
0000
0000
0000
0000
0000
2f00
3080
2080
2080
2080
3080
2f00
2000
2000
2000
ENDCHAR
STARTCHAR q
ENCODING 113
SWIDTH 714 0
DWIDTH 9 0
BBX 9 15 0 -3
BITMAP
0000
0000
0000
0000
0000
1e80
2180
2080
2080
2080
2180
1e80
0080
0080
0080
ENDCHAR
STARTCHAR r
ENCODING 114
SWIDTH 714 0
DWIDTH 9 0
BBX 9 15 0 -3
BITMAP
0000
0000
0000
0000
0000
2700
1880
1080
1000
1000
1000
1000
0000
0000
0000
ENDCHAR
STARTCHAR s
ENCODING 115
SWIDTH 714 0
DWIDTH 9 0
BBX 9 15 0 -3
BITMAP
0000
0000
0000
0000
0000
1f00
2080
2000
1f00
0080
2080
1f00
0000
0000
0000
ENDCHAR
STARTCHAR t
ENCODING 116
SWIDTH 714 0
DWIDTH 9 0
BBX 9 15 0 -3
BITMAP
0000
0000
0000
0800
0800
3f00
0800
0800
0800
0800
0880
0700
0000
0000
0000
ENDCHAR
STARTCHAR u
ENCODING 117
SWIDTH 714 0
DWIDTH 9 0
BBX 9 15 0 -3
BITMAP
0000
0000
0000
0000
0000
2100
2100
2100
2100
2100
2100
1e80
0000
0000
0000
ENDCHAR
STARTCHAR v
ENCODING 118
SWIDTH 714 0
DWIDTH 9 0
BBX 9 15 0 -3
BITMAP
0000
0000
0000
0000
0000
2080
2080
1100
1100
0a00
0a00
0400
0000
0000
0000
ENDCHAR
STARTCHAR w
ENCODING 119
SWIDTH 714 0
DWIDTH 9 0
BBX 9 15 0 -3
BITMAP
0000
0000
0000
0000
0000
2080
2080
2480
2480
2480
2a80
1100
0000
0000
0000
ENDCHAR
STARTCHAR x
ENCODING 120
SWIDTH 714 0
DWIDTH 9 0
BBX 9 15 0 -3
BITMAP
0000
0000
0000
0000
0000
2080
1100
0a00
0400
0a00
1100
2080
0000
0000
0000
ENDCHAR
STARTCHAR y
ENCODING 121
SWIDTH 714 0
DWIDTH 9 0
BBX 9 15 0 -3
BITMAP
0000
0000
0000
0000
0000
2100
2100
2100
2100
2100
2300
1d00
0100
2100
1e00
ENDCHAR
STARTCHAR z
ENCODING 122
SWIDTH 714 0
DWIDTH 9 0
BBX 9 15 0 -3
BITMAP
0000
0000
0000
0000
0000
3f80
0100
0200
0400
0800
1000
3f80
0000
0000
0000
ENDCHAR
STARTCHAR {
ENCODING 123
SWIDTH 714 0
DWIDTH 9 0
BBX 9 15 0 -3
BITMAP
0000
0000
0380
0400
0400
0200
0c00
0c00
0200
0400
0400
0380
0000
0000
0000
ENDCHAR
STARTCHAR |
ENCODING 124
SWIDTH 714 0
DWIDTH 9 0
BBX 9 15 0 -3
BITMAP
0000
0000
0400
0400
0400
0400
0400
0400
0400
0400
0400
0400
0000
0000
0000
ENDCHAR
STARTCHAR }
ENCODING 125
SWIDTH 714 0
DWIDTH 9 0
BBX 9 15 0 -3
BITMAP
0000
0000
3800
0400
0400
0800
0600
0600
0800
0400
0400
3800
0000
0000
0000
ENDCHAR
STARTCHAR ~
ENCODING 126
SWIDTH 714 0
DWIDTH 9 0
BBX 9 15 0 -3
BITMAP
0000
0000
1880
2480
2300
0000
0000
0000
0000
0000
0000
0000
0000
0000
0000
ENDCHAR
STARTCHAR C177
ENCODING 127
SWIDTH 714 0
DWIDTH 9 0
BBX 9 15 0 -3
BITMAP
0000
0000
0000
0000
0000
0000
0000
0000
0000
0000
0000
0000
0000
0000
0000
ENDCHAR
STARTCHAR C200
ENCODING -1
SWIDTH 714 0
DWIDTH 9 0
BBX 9 15 0 -3
BITMAP
0000
0000
0000
0000
0000
0000
0000
0000
0000
0000
0000
0000
0000
0000
0000
ENDCHAR
STARTCHAR C201
ENCODING -1
SWIDTH 714 0
DWIDTH 9 0
BBX 9 15 0 -3
BITMAP
0000
0000
0000
0000
0000
0000
0000
0000
0000
0000
0000
0000
0000
0000
0000
ENDCHAR
STARTCHAR C202
ENCODING -1
SWIDTH 714 0
DWIDTH 9 0
BBX 9 15 0 -3
BITMAP
0000
0000
0000
0000
0000
0000
0000
0000
0000
0000
0000
0000
0000
0000
0000
ENDCHAR
STARTCHAR C203
ENCODING -1
SWIDTH 714 0
DWIDTH 9 0
BBX 9 15 0 -3
BITMAP
0000
0000
0000
0000
0000
0000
0000
0000
0000
0000
0000
0000
0000
0000
0000
ENDCHAR
STARTCHAR C204
ENCODING -1
SWIDTH 714 0
DWIDTH 9 0
BBX 9 15 0 -3
BITMAP
0000
0000
0000
0000
0000
0000
0000
0000
0000
0000
0000
0000
0000
0000
0000
ENDCHAR
STARTCHAR C205
ENCODING -1
SWIDTH 714 0
DWIDTH 9 0
BBX 9 15 0 -3
BITMAP
0000
0000
0000
0000
0000
0000
0000
0000
0000
0000
0000
0000
0000
0000
0000
ENDCHAR
STARTCHAR C206
ENCODING -1
SWIDTH 714 0
DWIDTH 9 0
BBX 9 15 0 -3
BITMAP
0000
0000
0000
0000
0000
0000
0000
0000
0000
0000
0000
0000
0000
0000
0000
ENDCHAR
STARTCHAR C207
ENCODING -1
SWIDTH 714 0
DWIDTH 9 0
BBX 9 15 0 -3
BITMAP
0000
0000
0000
0000
0000
0000
0000
0000
0000
0000
0000
0000
0000
0000
0000
ENDCHAR
STARTCHAR C210
ENCODING -1
SWIDTH 714 0
DWIDTH 9 0
BBX 9 15 0 -3
BITMAP
0000
0000
0000
0000
0000
0000
0000
0000
0000
0000
0000
0000
0000
0000
0000
ENDCHAR
STARTCHAR C211
ENCODING -1
SWIDTH 714 0
DWIDTH 9 0
BBX 9 15 0 -3
BITMAP
0000
0000
0000
0000
0000
0000
0000
0000
0000
0000
0000
0000
0000
0000
0000
ENDCHAR
STARTCHAR C212
ENCODING -1
SWIDTH 714 0
DWIDTH 9 0
BBX 9 15 0 -3
BITMAP
0000
0000
0000
0000
0000
0000
0000
0000
0000
0000
0000
0000
0000
0000
0000
ENDCHAR
STARTCHAR C213
ENCODING -1
SWIDTH 714 0
DWIDTH 9 0
BBX 9 15 0 -3
BITMAP
0000
0000
0000
0000
0000
0000
0000
0000
0000
0000
0000
0000
0000
0000
0000
ENDCHAR
STARTCHAR C214
ENCODING -1
SWIDTH 714 0
DWIDTH 9 0
BBX 9 15 0 -3
BITMAP
0000
0000
0000
0000
0000
0000
0000
0000
0000
0000
0000
0000
0000
0000
0000
ENDCHAR
STARTCHAR C215
ENCODING -1
SWIDTH 714 0
DWIDTH 9 0
BBX 9 15 0 -3
BITMAP
0000
0000
0000
0000
0000
0000
0000
0000
0000
0000
0000
0000
0000
0000
0000
ENDCHAR
STARTCHAR C216
ENCODING -1
SWIDTH 714 0
DWIDTH 9 0
BBX 9 15 0 -3
BITMAP
0000
0000
0000
0000
0000
0000
0000
0000
0000
0000
0000
0000
0000
0000
0000
ENDCHAR
STARTCHAR C217
ENCODING -1
SWIDTH 714 0
DWIDTH 9 0
BBX 9 15 0 -3
BITMAP
0000
0000
0000
0000
0000
0000
0000
0000
0000
0000
0000
0000
0000
0000
0000
ENDCHAR
STARTCHAR C220
ENCODING -1
SWIDTH 714 0
DWIDTH 9 0
BBX 9 15 0 -3
BITMAP
0000
0000
0000
0000
0000
0000
0000
0000
0000
0000
0000
0000
0000
0000
0000
ENDCHAR
STARTCHAR C221
ENCODING -1
SWIDTH 714 0
DWIDTH 9 0
BBX 9 15 0 -3
BITMAP
0000
0000
0000
0000
0000
0000
0000
0000
0000
0000
0000
0000
0000
0000
0000
ENDCHAR
STARTCHAR C222
ENCODING -1
SWIDTH 714 0
DWIDTH 9 0
BBX 9 15 0 -3
BITMAP
0000
0000
0000
0000
0000
0000
0000
0000
0000
0000
0000
0000
0000
0000
0000
ENDCHAR
STARTCHAR C223
ENCODING -1
SWIDTH 714 0
DWIDTH 9 0
BBX 9 15 0 -3
BITMAP
0000
0000
0000
0000
0000
0000
0000
0000
0000
0000
0000
0000
0000
0000
0000
ENDCHAR
STARTCHAR C224
ENCODING -1
SWIDTH 714 0
DWIDTH 9 0
BBX 9 15 0 -3
BITMAP
0000
0000
0000
0000
0000
0000
0000
0000
0000
0000
0000
0000
0000
0000
0000
ENDCHAR
STARTCHAR C225
ENCODING -1
SWIDTH 714 0
DWIDTH 9 0
BBX 9 15 0 -3
BITMAP
0000
0000
0000
0000
0000
0000
0000
0000
0000
0000
0000
0000
0000
0000
0000
ENDCHAR
STARTCHAR C226
ENCODING -1
SWIDTH 714 0
DWIDTH 9 0
BBX 9 15 0 -3
BITMAP
0000
0000
0000
0000
0000
0000
0000
0000
0000
0000
0000
0000
0000
0000
0000
ENDCHAR
STARTCHAR C227
ENCODING -1
SWIDTH 714 0
DWIDTH 9 0
BBX 9 15 0 -3
BITMAP
0000
0000
0000
0000
0000
0000
0000
0000
0000
0000
0000
0000
0000
0000
0000
ENDCHAR
STARTCHAR C230
ENCODING -1
SWIDTH 714 0
DWIDTH 9 0
BBX 9 15 0 -3
BITMAP
0000
0000
0000
0000
0000
0000
0000
0000
0000
0000
0000
0000
0000
0000
0000
ENDCHAR
STARTCHAR C231
ENCODING -1
SWIDTH 714 0
DWIDTH 9 0
BBX 9 15 0 -3
BITMAP
0000
0000
0000
0000
0000
0000
0000
0000
0000
0000
0000
0000
0000
0000
0000
ENDCHAR
STARTCHAR C232
ENCODING -1
SWIDTH 714 0
DWIDTH 9 0
BBX 9 15 0 -3
BITMAP
0000
0000
0000
0000
0000
0000
0000
0000
0000
0000
0000
0000
0000
0000
0000
ENDCHAR
STARTCHAR C233
ENCODING -1
SWIDTH 714 0
DWIDTH 9 0
BBX 9 15 0 -3
BITMAP
0000
0000
0000
0000
0000
0000
0000
0000
0000
0000
0000
0000
0000
0000
0000
ENDCHAR
STARTCHAR C234
ENCODING -1
SWIDTH 714 0
DWIDTH 9 0
BBX 9 15 0 -3
BITMAP
0000
0000
0000
0000
0000
0000
0000
0000
0000
0000
0000
0000
0000
0000
0000
ENDCHAR
STARTCHAR C235
ENCODING -1
SWIDTH 714 0
DWIDTH 9 0
BBX 9 15 0 -3
BITMAP
0000
0000
0000
0000
0000
0000
0000
0000
0000
0000
0000
0000
0000
0000
0000
ENDCHAR
STARTCHAR C236
ENCODING -1
SWIDTH 714 0
DWIDTH 9 0
BBX 9 15 0 -3
BITMAP
0000
0000
0000
0000
0000
0000
0000
0000
0000
0000
0000
0000
0000
0000
0000
ENDCHAR
STARTCHAR C237
ENCODING -1
SWIDTH 714 0
DWIDTH 9 0
BBX 9 15 0 -3
BITMAP
0000
0000
0000
0000
0000
0000
0000
0000
0000
0000
0000
0000
0000
0000
0000
ENDCHAR
STARTCHAR C240
ENCODING -1
SWIDTH 714 0
DWIDTH 9 0
BBX 9 15 0 -3
BITMAP
0000
0000
0000
0000
0000
0000
0000
0000
0000
0000
0000
0000
0000
0000
0000
ENDCHAR
STARTCHAR C241
ENCODING -1
SWIDTH 714 0
DWIDTH 9 0
BBX 9 15 0 -3
BITMAP
0000
0000
0000
0000
0000
0000
0000
0000
0000
0000
0000
0000
0000
0000
0000
ENDCHAR
STARTCHAR C242
ENCODING -1
SWIDTH 714 0
DWIDTH 9 0
BBX 9 15 0 -3
BITMAP
0000
0000
0000
0000
0000
0000
0000
0000
0000
0000
0000
0000
0000
0000
0000
ENDCHAR
STARTCHAR C243
ENCODING 163
SWIDTH 714 0
DWIDTH 9 0
BBX 9 15 0 -3
BITMAP
0000
0a00
0a00
0000
0000
1f00
2080
2080
3f80
2000
2000
1f00
0000
0000
0000
ENDCHAR
STARTCHAR C244
ENCODING -1
SWIDTH 714 0
DWIDTH 9 0
BBX 9 15 0 -3
BITMAP
0000
0000
0000
0000
0000
0000
0000
0000
0000
0000
0000
0000
0000
0000
0000
ENDCHAR
STARTCHAR C245
ENCODING -1
SWIDTH 714 0
DWIDTH 9 0
BBX 9 15 0 -3
BITMAP
0000
0000
0000
0000
0000
0000
0000
0000
0000
0000
0000
0000
0000
0000
0000
ENDCHAR
STARTCHAR C246
ENCODING -1
SWIDTH 714 0
DWIDTH 9 0
BBX 9 15 0 -3
BITMAP
0000
0000
0000
0000
0000
0000
0000
0000
0000
0000
0000
0000
0000
0000
0000
ENDCHAR
STARTCHAR C247
ENCODING -1
SWIDTH 714 0
DWIDTH 9 0
BBX 9 15 0 -3
BITMAP
0000
0000
0000
0000
0000
0000
0000
0000
0000
0000
0000
0000
0000
0000
0000
ENDCHAR
STARTCHAR C250
ENCODING -1
SWIDTH 714 0
DWIDTH 9 0
BBX 9 15 0 -3
BITMAP
0000
0000
0000
0000
0000
0000
0000
0000
0000
0000
0000
0000
0000
0000
0000
ENDCHAR
STARTCHAR C251
ENCODING -1
SWIDTH 714 0
DWIDTH 9 0
BBX 9 15 0 -3
BITMAP
0000
0000
0000
0000
0000
0000
0000
0000
0000
0000
0000
0000
0000
0000
0000
ENDCHAR
STARTCHAR C252
ENCODING -1
SWIDTH 714 0
DWIDTH 9 0
BBX 9 15 0 -3
BITMAP
0000
0000
0000
0000
0000
0000
0000
0000
0000
0000
0000
0000
0000
0000
0000
ENDCHAR
STARTCHAR C253
ENCODING -1
SWIDTH 714 0
DWIDTH 9 0
BBX 9 15 0 -3
BITMAP
0000
0000
0000
0000
0000
0000
0000
0000
0000
0000
0000
0000
0000
0000
0000
ENDCHAR
STARTCHAR C254
ENCODING -1
SWIDTH 714 0
DWIDTH 9 0
BBX 9 15 0 -3
BITMAP
0000
0000
0000
0000
0000
0000
0000
0000
0000
0000
0000
0000
0000
0000
0000
ENDCHAR
STARTCHAR C255
ENCODING -1
SWIDTH 714 0
DWIDTH 9 0
BBX 9 15 0 -3
BITMAP
0000
0000
0000
0000
0000
0000
0000
0000
0000
0000
0000
0000
0000
0000
0000
ENDCHAR
STARTCHAR C256
ENCODING -1
SWIDTH 714 0
DWIDTH 9 0
BBX 9 15 0 -3
BITMAP
0000
0000
0000
0000
0000
0000
0000
0000
0000
0000
0000
0000
0000
0000
0000
ENDCHAR
STARTCHAR C257
ENCODING -1
SWIDTH 714 0
DWIDTH 9 0
BBX 9 15 0 -3
BITMAP
0000
0000
0000
0000
0000
0000
0000
0000
0000
0000
0000
0000
0000
0000
0000
ENDCHAR
STARTCHAR C260
ENCODING -1
SWIDTH 714 0
DWIDTH 9 0
BBX 9 15 0 -3
BITMAP
0000
0000
0000
0000
0000
0000
0000
0000
0000
0000
0000
0000
0000
0000
0000
ENDCHAR
STARTCHAR C261
ENCODING -1
SWIDTH 714 0
DWIDTH 9 0
BBX 9 15 0 -3
BITMAP
0000
0000
0000
0000
0000
0000
0000
0000
0000
0000
0000
0000
0000
0000
0000
ENDCHAR
STARTCHAR C262
ENCODING -1
SWIDTH 714 0
DWIDTH 9 0
BBX 9 15 0 -3
BITMAP
0000
0000
0000
0000
0000
0000
0000
0000
0000
0000
0000
0000
0000
0000
0000
ENDCHAR
STARTCHAR C263
ENCODING 179
SWIDTH 714 0
DWIDTH 9 0
BBX 9 15 0 -3
BITMAP
1b00
0000
3f80
1000
1000
1000
1e00
1000
1000
1000
1000
3f80
0000
0000
0000
ENDCHAR
STARTCHAR C264
ENCODING -1
SWIDTH 714 0
DWIDTH 9 0
BBX 9 15 0 -3
BITMAP
0000
0000
0000
0000
0000
0000
0000
0000
0000
0000
0000
0000
0000
0000
0000
ENDCHAR
STARTCHAR C265
ENCODING -1
SWIDTH 714 0
DWIDTH 9 0
BBX 9 15 0 -3
BITMAP
0000
0000
0000
0000
0000
0000
0000
0000
0000
0000
0000
0000
0000
0000
0000
ENDCHAR
STARTCHAR C266
ENCODING -1
SWIDTH 714 0
DWIDTH 9 0
BBX 9 15 0 -3
BITMAP
0000
0000
0000
0000
0000
0000
0000
0000
0000
0000
0000
0000
0000
0000
0000
ENDCHAR
STARTCHAR C267
ENCODING -1
SWIDTH 714 0
DWIDTH 9 0
BBX 9 15 0 -3
BITMAP
0000
0000
0000
0000
0000
0000
0000
0000
0000
0000
0000
0000
0000
0000
0000
ENDCHAR
STARTCHAR C270
ENCODING -1
SWIDTH 714 0
DWIDTH 9 0
BBX 9 15 0 -3
BITMAP
0000
0000
0000
0000
0000
0000
0000
0000
0000
0000
0000
0000
0000
0000
0000
ENDCHAR
STARTCHAR C271
ENCODING -1
SWIDTH 714 0
DWIDTH 9 0
BBX 9 15 0 -3
BITMAP
0000
0000
0000
0000
0000
0000
0000
0000
0000
0000
0000
0000
0000
0000
0000
ENDCHAR
STARTCHAR C272
ENCODING -1
SWIDTH 714 0
DWIDTH 9 0
BBX 9 15 0 -3
BITMAP
0000
0000
0000
0000
0000
0000
0000
0000
0000
0000
0000
0000
0000
0000
0000
ENDCHAR
STARTCHAR C273
ENCODING -1
SWIDTH 714 0
DWIDTH 9 0
BBX 9 15 0 -3
BITMAP
0000
0000
0000
0000
0000
0000
0000
0000
0000
0000
0000
0000
0000
0000
0000
ENDCHAR
STARTCHAR C274
ENCODING -1
SWIDTH 714 0
DWIDTH 9 0
BBX 9 15 0 -3
BITMAP
0000
0000
0000
0000
0000
0000
0000
0000
0000
0000
0000
0000
0000
0000
0000
ENDCHAR
STARTCHAR C275
ENCODING -1
SWIDTH 714 0
DWIDTH 9 0
BBX 9 15 0 -3
BITMAP
0000
0000
0000
0000
0000
0000
0000
0000
0000
0000
0000
0000
0000
0000
0000
ENDCHAR
STARTCHAR C276
ENCODING -1
SWIDTH 714 0
DWIDTH 9 0
BBX 9 15 0 -3
BITMAP
0000
0000
0000
0000
0000
0000
0000
0000
0000
0000
0000
0000
0000
0000
0000
ENDCHAR
STARTCHAR C277
ENCODING -1
SWIDTH 714 0
DWIDTH 9 0
BBX 9 15 0 -3
BITMAP
0000
0000
0000
0000
0000
0000
0000
0000
0000
0000
0000
0000
0000
0000
0000
ENDCHAR
STARTCHAR C300
ENCODING 192
SWIDTH 714 0
DWIDTH 9 0
BBX 9 15 0 -3
BITMAP
0000
0000
0000
0000
0000
2300
2480
2480
3c80
2480
2480
2300
0000
0000
0000
ENDCHAR
STARTCHAR C301
ENCODING 193
SWIDTH 714 0
DWIDTH 9 0
BBX 9 15 0 -3
BITMAP
0000
0000
0000
0000
0000
0e00
1100
2080
2080
3f80
2080
2080
0000
0000
0000
ENDCHAR
STARTCHAR C302
ENCODING 194
SWIDTH 714 0
DWIDTH 9 0
BBX 9 15 0 -3
BITMAP
0000
0000
0000
0000
0000
3f00
2000
2000
3f00
2080
2080
3f00
0000
0000
0000
ENDCHAR
STARTCHAR C303
ENCODING 195
SWIDTH 714 0
DWIDTH 9 0
BBX 9 15 0 -3
BITMAP
0000
0000
0000
0000
0000
2100
2100
2100
2100
2100
2100
3f80
0080
0100
0200
ENDCHAR
STARTCHAR C304
ENCODING 196
SWIDTH 714 0
DWIDTH 9 0
BBX 9 15 0 -3
BITMAP
0000
0000
0000
0000
0000
0e00
0a00
1200
1200
1200
1200
7f80
4080
0000
0000
ENDCHAR
STARTCHAR C305
ENCODING 197
SWIDTH 714 0
DWIDTH 9 0
BBX 9 15 0 -3
BITMAP
0000
0000
0000
0000
0000
1f00
2080
2080
3f80
2000
2000
1f00
0000
0000
0000
ENDCHAR
STARTCHAR C306
ENCODING 198
SWIDTH 714 0
DWIDTH 9 0
BBX 9 15 0 -3
BITMAP
0000
0000
0000
0000
0400
1f00
2480
2480
2480
2480
2480
1f00
0400
0000
0000
ENDCHAR
STARTCHAR C307
ENCODING 199
SWIDTH 714 0
DWIDTH 9 0
BBX 9 15 0 -3
BITMAP
0000
0000
0000
0000
0000
3f80
2080
2000
2000
2000
2000
2000
0000
0000
0000
ENDCHAR
STARTCHAR C310
ENCODING 200
SWIDTH 714 0
DWIDTH 9 0
BBX 9 15 0 -3
BITMAP
0000
0000
0000
0000
0000
2080
1100
0a00
0400
0a00
1100
2080
0000
0000
0000
ENDCHAR
STARTCHAR C311
ENCODING 201
SWIDTH 714 0
DWIDTH 9 0
BBX 9 15 0 -3
BITMAP
0000
0000
0000
0000
0000
2080
2180
2280
2480
2880
3080
2080
0000
0000
0000
ENDCHAR
STARTCHAR C312
ENCODING 202
SWIDTH 714 0
DWIDTH 9 0
BBX 9 15 0 -3
BITMAP
0000
0000
0600
0c00
0000
2080
2180
2280
2480
2880
3080
2080
0000
0000
0000
ENDCHAR
STARTCHAR C313
ENCODING 203
SWIDTH 714 0
DWIDTH 9 0
BBX 9 15 0 -3
BITMAP
0000
0000
0000
0000
0000
2080
2300
2c00
3000
2c00
2300
2080
0000
0000
0000
ENDCHAR
STARTCHAR C314
ENCODING 204
SWIDTH 714 0
DWIDTH 9 0
BBX 9 15 0 -3
BITMAP
0000
0000
0000
0000
0000
0780
0880
1080
1080
1080
2080
2080
0000
0000
0000
ENDCHAR
STARTCHAR C315
ENCODING 205
SWIDTH 714 0
DWIDTH 9 0
BBX 9 15 0 -3
BITMAP
0000
0000
0000
0000
0000
2080
3180
2a80
2480
2480
2080
2080
0000
0000
0000
ENDCHAR
STARTCHAR C316
ENCODING 206
SWIDTH 714 0
DWIDTH 9 0
BBX 9 15 0 -3
BITMAP
0000
0000
0000
0000
0000
2080
2080
2080
3f80
2080
2080
2080
0000
0000
0000
ENDCHAR
STARTCHAR C317
ENCODING 207
SWIDTH 714 0
DWIDTH 9 0
BBX 9 15 0 -3
BITMAP
0000
0000
0000
0000
0000
1f00
2080
2080
2080
2080
2080
1f00
0000
0000
0000
ENDCHAR
STARTCHAR C320
ENCODING 208
SWIDTH 714 0
DWIDTH 9 0
BBX 9 15 0 -3
BITMAP
0000
0000
0000
0000
0000
3f80
2080
2080
2080
2080
2080
2080
0000
0000
0000
ENDCHAR
STARTCHAR C321
ENCODING 209
SWIDTH 714 0
DWIDTH 9 0
BBX 9 15 0 -3
BITMAP
0000
0000
0000
0000
0000
1f80
2080
2080
1f80
0280
0c80
3080
0000
0000
0000
ENDCHAR
STARTCHAR C322
ENCODING 210
SWIDTH 714 0
DWIDTH 9 0
BBX 9 15 0 -3
BITMAP
0000
0000
0000
0000
0000
3f00
2080
2080
2080
3f00
2000
2000
0000
0000
0000
ENDCHAR
STARTCHAR C323
ENCODING 211
SWIDTH 714 0
DWIDTH 9 0
BBX 9 15 0 -3
BITMAP
0000
0000
0000
0000
0000
1f00
2080
2000
2000
2000
2080
1f00
0000
0000
0000
ENDCHAR
STARTCHAR C324
ENCODING 212
SWIDTH 714 0
DWIDTH 9 0
BBX 9 15 0 -3
BITMAP
0000
0000
0000
0000
0000
3f80
2480
0400
0400
0400
0400
0400
0000
0000
0000
ENDCHAR
STARTCHAR C325
ENCODING 213
SWIDTH 714 0
DWIDTH 9 0
BBX 9 15 0 -3
BITMAP
0000
0000
0000
0000
0000
2080
2080
2080
1f80
0080
0080
1f00
0000
0000
0000
ENDCHAR
STARTCHAR C326
ENCODING 214
SWIDTH 714 0
DWIDTH 9 0
BBX 10 15 0 -3
BITMAP
0000
0000
0000
0000
0000
2480
1500
0e00
0400
1f00
2480
2480
0000
0000
0000
ENDCHAR
STARTCHAR C327
ENCODING 215
SWIDTH 714 0
DWIDTH 9 0
BBX 9 15 0 -3
BITMAP
0000
0000
0000
0000
0000
3f00
2080
2080
3f00
2080
2080
3f00
0000
0000
0000
ENDCHAR
STARTCHAR C330
ENCODING 216
SWIDTH 714 0
DWIDTH 9 0
BBX 9 15 0 -3
BITMAP
0000
0000
0000
0000
0000
2000
2000
2000
3f00
2080
2080
3f00
0000
0000
0000
ENDCHAR
STARTCHAR C331
ENCODING 217
SWIDTH 714 0
DWIDTH 9 0
BBX 9 15 0 -3
BITMAP
0000
0000
0000
0000
0000
2080
2080
2080
3c80
2280
2280
3c80
0000
0000
0000
ENDCHAR
STARTCHAR C332
ENCODING 218
SWIDTH 714 0
DWIDTH 9 0
BBX 9 15 0 -3
BITMAP
0000
0000
0000
0000
0000
1f00
2080
0100
0600
0180
2080
1f00
0000
0000
0000
ENDCHAR
STARTCHAR C333
ENCODING 219
SWIDTH 714 0
DWIDTH 9 0
BBX 9 15 0 -3
BITMAP
0000
0000
0000
0000
0000
2480
2480
2480
2480
2480
2480
3f80
0000
0000
0000
ENDCHAR
STARTCHAR C334
ENCODING 220
SWIDTH 714 0
DWIDTH 9 0
BBX 9 15 0 -3
BITMAP
0000
0000
0000
0000
0000
3e00
0100
0080
0f80
0080
0100
3e00
0000
0000
0000
ENDCHAR
STARTCHAR C335
ENCODING 221
SWIDTH 714 0
DWIDTH 9 0
BBX 9 15 0 -3
BITMAP
0000
0000
0000
0000
0000
2480
2480
2480
2480
2480
2480
3f80
0080
0100
0200
ENDCHAR
STARTCHAR C336
ENCODING 222
SWIDTH 714 0
DWIDTH 9 0
BBX 9 15 0 -3
BITMAP
0000
0000
0000
0000
0000
2080
2080
2080
2080
1f80
0080
0080
0000
0000
0000
ENDCHAR
STARTCHAR C337
ENCODING 223
SWIDTH 714 0
DWIDTH 9 0
BBX 9 15 0 -3
BITMAP
0000
0000
0000
0000
0000
3000
1000
1000
1f00
1080
1080
1f00
0000
0000
0000
ENDCHAR
STARTCHAR C340
ENCODING 224
SWIDTH 714 0
DWIDTH 9 0
BBX 9 15 0 -3
BITMAP
0000
0000
2300
2480
2480
2480
2480
3c80
2480
2480
2480
2300
0000
0000
0000
ENDCHAR
STARTCHAR C341
ENCODING 225
SWIDTH 714 0
DWIDTH 9 0
BBX 9 15 0 -3
BITMAP
0000
0000
0600
0900
1080
2080
2080
2080
3f80
2080
2080
2080
0000
0000
0000
ENDCHAR
STARTCHAR C342
ENCODING 226
SWIDTH 714 0
DWIDTH 9 0
BBX 9 15 0 -3
BITMAP
0000
0000
3f00
2000
2000
2000
3f00
2080
2080
2080
2080
3f00
0000
0000
0000
ENDCHAR
STARTCHAR C343
ENCODING 227
SWIDTH 714 0
DWIDTH 9 0
BBX 9 15 0 -3
BITMAP
0000
0000
2100
2100
2100
2100
2100
2100
2100
2100
2100
3f80
0080
0100
0200
ENDCHAR
STARTCHAR C344
ENCODING 228
SWIDTH 714 0
DWIDTH 9 0
BBX 9 15 0 -3
BITMAP
0000
0000
0e00
0a00
1200
1200
1200
1200
1200
1200
1200
7f80
4080
0000
0000
ENDCHAR
STARTCHAR C345
ENCODING 229
SWIDTH 714 0
DWIDTH 9 0
BBX 9 15 0 -3
BITMAP
0000
0000
3f80
2000
2000
2000
3e00
2000
2000
2000
2000
3f80
0000
0000
0000
ENDCHAR
STARTCHAR C346
ENCODING 230
SWIDTH 714 0
DWIDTH 9 0
BBX 10 15 0 -3
BITMAP
0000
0400
1f00
2480
2480
2480
2480
2480
2480
2480
1f00
0400
0400
0000
0000
ENDCHAR
STARTCHAR C347
ENCODING 231
SWIDTH 714 0
DWIDTH 9 0
BBX 9 15 0 -3
BITMAP
0000
0000
3f80
2080
2000
2000
2000
2000
2000
2000
2000
2000
0000
0000
0000
ENDCHAR
STARTCHAR C350
ENCODING 232
SWIDTH 714 0
DWIDTH 9 0
BBX 9 15 0 -3
BITMAP
0000
0000
2080
2080
1100
0a00
0400
0400
0a00
1100
2080
2080
0000
0000
0000
ENDCHAR
STARTCHAR C351
ENCODING 233
SWIDTH 714 0
DWIDTH 9 0
BBX 9 15 0 -3
BITMAP
0000
0000
2080
2080
2080
2180
2280
2480
2880
3080
2080
2080
0000
0000
0000
ENDCHAR
STARTCHAR C352
ENCODING 234
SWIDTH 714 0
DWIDTH 9 0
BBX 9 15 0 -3
BITMAP
0600
0c00
2080
2080
2080
2180
2280
2480
2880
3080
2080
2080
0000
0000
0000
ENDCHAR
STARTCHAR C353
ENCODING 235
SWIDTH 714 0
DWIDTH 9 0
BBX 9 15 0 -3
BITMAP
0000
0000
2080
2100
2200
2400
3800
2400
2200
2100
2080
2080
0000
0000
0000
ENDCHAR
STARTCHAR C354
ENCODING 236
SWIDTH 714 0
DWIDTH 9 0
BBX 9 15 0 -3
BITMAP
0000
0000
0780
0880
0880
1080
1080
1080
1080
2080
2080
2080
0000
0000
0000
ENDCHAR
STARTCHAR C355
ENCODING 237
SWIDTH 714 0
DWIDTH 9 0
BBX 9 15 0 -3
BITMAP
0000
0000
2080
3180
2a80
2a80
2480
2480
2080
2080
2080
2080
0000
0000
0000
ENDCHAR
STARTCHAR C356
ENCODING 238
SWIDTH 714 0
DWIDTH 9 0
BBX 9 15 0 -3
BITMAP
0000
0000
2080
2080
2080
2080
3f80
2080
2080
2080
2080
2080
0000
0000
0000
ENDCHAR
STARTCHAR C357
ENCODING 239
SWIDTH 714 0
DWIDTH 9 0
BBX 10 15 0 -3
BITMAP
0000
0000
1f00
2080
2080
2080
2080
2080
2080
2080
2080
1f00
0000
0000
0000
ENDCHAR
STARTCHAR C360
ENCODING 240
SWIDTH 714 0
DWIDTH 9 0
BBX 10 15 0 -3
BITMAP
0000
0000
3f80
2080
2080
2080
2080
2080
2080
2080
2080
2080
0000
0000
0000
ENDCHAR
STARTCHAR C361
ENCODING 241
SWIDTH 714 0
DWIDTH 9 0
BBX 9 15 0 -3
BITMAP
0000
0000
1f80
2080
2080
2080
2080
1f80
0480
0880
1080
2080
0000
0000
0000
ENDCHAR
STARTCHAR C362
ENCODING 242
SWIDTH 714 0
DWIDTH 9 0
BBX 9 15 0 -3
BITMAP
0000
0000
3f00
2080
2080
2080
2080
3f00
2000
2000
2000
2000
0000
0000
0000
ENDCHAR
STARTCHAR C363
ENCODING 243
SWIDTH 714 0
DWIDTH 9 0
BBX 9 15 0 -3
BITMAP
0000
0000
1f00
2080
2000
2000
2000
2000
2000
2000
2080
1f00
0000
0000
0000
ENDCHAR
STARTCHAR C364
ENCODING 244
SWIDTH 714 0
DWIDTH 9 0
BBX 9 15 0 -3
BITMAP
0000
0000
3f80
2480
0400
0400
0400
0400
0400
0400
0400
0400
0000
0000
0000
ENDCHAR
STARTCHAR C365
ENCODING 245
SWIDTH 714 0
DWIDTH 9 0
BBX 9 15 0 -3
BITMAP
0000
0000
2080
2080
2080
2080
2080
1f80
0080
0080
0080
1f00
0000
0000
0000
ENDCHAR
STARTCHAR C366
ENCODING 246
SWIDTH 714 0
DWIDTH 9 0
BBX 9 15 0 -3
BITMAP
0000
0000
2480
2480
1500
0e00
0400
1f00
2480
2480
2480
2480
0000
0000
0000
ENDCHAR
STARTCHAR C367
ENCODING 247
SWIDTH 714 0
DWIDTH 9 0
BBX 9 15 0 -3
BITMAP
0000
0000
3f00
2080
2080
2080
3f00
2080
2080
2080
2080
3f00
0000
0000
0000
ENDCHAR
STARTCHAR C370
ENCODING 248
SWIDTH 714 0
DWIDTH 9 0
BBX 9 15 0 -3
BITMAP
0000
0000
2000
2000
2000
2000
3f00
2080
2080
2080
2080
3f00
0000
0000
0000
ENDCHAR
STARTCHAR C371
ENCODING 249
SWIDTH 714 0
DWIDTH 9 0
BBX 9 15 0 -3
BITMAP
0000
0000
2080
2080
2080
2080
3c80
2280
2280
2280
2280
3c80
0000
0000
0000
ENDCHAR
STARTCHAR C372
ENCODING 250
SWIDTH 714 0
DWIDTH 9 0
BBX 9 15 0 -3
BITMAP
0000
0000
1f00
2080
0080
0100
0600
0100
0080
0080
2080
1f00
0000
0000
0000
ENDCHAR
STARTCHAR C373
ENCODING 251
SWIDTH 714 0
DWIDTH 9 0
BBX 9 15 0 -3
BITMAP
0000
0000
2480
2480
2480
2480
2480
2480
2480
2480
2480
3f80
0000
0000
0000
ENDCHAR
STARTCHAR C374
ENCODING 252
SWIDTH 714 0
DWIDTH 9 0
BBX 9 15 0 -3
BITMAP
0000
0000
3c00
0200
0100
0080
0f80
0080
0080
0100
0200
3c00
0000
0000
0000
ENDCHAR
STARTCHAR C375
ENCODING 253
SWIDTH 714 0
DWIDTH 9 0
BBX 9 15 0 -3
BITMAP
0000
0000
2480
2480
2480
2480
2480
2480
2480
2480
2480
3f80
0080
0100
0200
ENDCHAR
STARTCHAR C376
ENCODING 254
SWIDTH 714 0
DWIDTH 9 0
BBX 10 15 0 -3
BITMAP
0000
0000
2080
2080
2080
2080
2080
1f80
0080
0080
0080
0080
0000
0000
0000
ENDCHAR
STARTCHAR C377
ENCODING 255
SWIDTH 714 0
DWIDTH 9 0
BBX 9 15 0 -3
BITMAP
0000
0000
3000
1000
1000
1000
1f00
1080
1080
1080
1080
1f00
0000
0000
0000
ENDCHAR
ENDFONT
